<mxfile host="Electron" modified="2023-07-09T01:09:49.088Z" agent="Mozilla/5.0 (X11; Linux x86_64) AppleWebKit/537.36 (KHTML, like Gecko) draw.io/21.6.1 Chrome/112.0.5615.204 Electron/24.6.1 Safari/537.36" etag="9ynS8QHt71CklNgDxoPz" version="21.6.1" type="device">
  <diagram name="Página-1" id="-f6Sba55OOnlkXJaFWW0">
    <mxGraphModel dx="2062" dy="1916" grid="1" gridSize="10" guides="1" tooltips="1" connect="1" arrows="1" fold="1" page="1" pageScale="1" pageWidth="827" pageHeight="1169" math="0" shadow="0">
      <root>
        <mxCell id="0" />
        <mxCell id="1" parent="0" />
        <mxCell id="pIe9qyHZKkRfnRFprfgE-15" style="edgeStyle=orthogonalEdgeStyle;rounded=0;orthogonalLoop=1;jettySize=auto;html=1;exitX=0.5;exitY=0;exitDx=0;exitDy=0;entryX=0.5;entryY=1;entryDx=0;entryDy=0;" edge="1" parent="1" source="pIe9qyHZKkRfnRFprfgE-1" target="pIe9qyHZKkRfnRFprfgE-12">
          <mxGeometry relative="1" as="geometry" />
        </mxCell>
        <mxCell id="pIe9qyHZKkRfnRFprfgE-19" style="edgeStyle=orthogonalEdgeStyle;rounded=0;orthogonalLoop=1;jettySize=auto;html=1;exitX=0;exitY=0;exitDx=0;exitDy=0;entryX=1;entryY=1;entryDx=0;entryDy=0;" edge="1" parent="1" source="pIe9qyHZKkRfnRFprfgE-1" target="pIe9qyHZKkRfnRFprfgE-2">
          <mxGeometry relative="1" as="geometry" />
        </mxCell>
        <mxCell id="pIe9qyHZKkRfnRFprfgE-22" style="edgeStyle=orthogonalEdgeStyle;rounded=0;orthogonalLoop=1;jettySize=auto;html=1;exitX=0;exitY=0.5;exitDx=0;exitDy=0;entryX=1;entryY=0.5;entryDx=0;entryDy=0;" edge="1" parent="1" source="pIe9qyHZKkRfnRFprfgE-1" target="pIe9qyHZKkRfnRFprfgE-3">
          <mxGeometry relative="1" as="geometry" />
        </mxCell>
        <mxCell id="pIe9qyHZKkRfnRFprfgE-23" style="edgeStyle=orthogonalEdgeStyle;rounded=0;orthogonalLoop=1;jettySize=auto;html=1;exitX=0;exitY=1;exitDx=0;exitDy=0;entryX=1;entryY=0;entryDx=0;entryDy=0;" edge="1" parent="1" source="pIe9qyHZKkRfnRFprfgE-1" target="pIe9qyHZKkRfnRFprfgE-11">
          <mxGeometry relative="1" as="geometry" />
        </mxCell>
        <mxCell id="pIe9qyHZKkRfnRFprfgE-24" style="edgeStyle=orthogonalEdgeStyle;rounded=0;orthogonalLoop=1;jettySize=auto;html=1;exitX=0.25;exitY=1;exitDx=0;exitDy=0;" edge="1" parent="1" source="pIe9qyHZKkRfnRFprfgE-1" target="pIe9qyHZKkRfnRFprfgE-13">
          <mxGeometry relative="1" as="geometry" />
        </mxCell>
        <mxCell id="pIe9qyHZKkRfnRFprfgE-29" style="edgeStyle=orthogonalEdgeStyle;rounded=0;orthogonalLoop=1;jettySize=auto;html=1;exitX=1;exitY=0.5;exitDx=0;exitDy=0;entryX=0;entryY=0.5;entryDx=0;entryDy=0;" edge="1" parent="1" source="pIe9qyHZKkRfnRFprfgE-1" target="pIe9qyHZKkRfnRFprfgE-4">
          <mxGeometry relative="1" as="geometry" />
        </mxCell>
        <mxCell id="pIe9qyHZKkRfnRFprfgE-59" style="edgeStyle=orthogonalEdgeStyle;rounded=0;orthogonalLoop=1;jettySize=auto;html=1;exitX=1;exitY=1;exitDx=0;exitDy=0;entryX=0;entryY=0.5;entryDx=0;entryDy=0;" edge="1" parent="1" source="pIe9qyHZKkRfnRFprfgE-1" target="pIe9qyHZKkRfnRFprfgE-55">
          <mxGeometry relative="1" as="geometry" />
        </mxCell>
        <mxCell id="pIe9qyHZKkRfnRFprfgE-1" value="Alumno" style="rounded=1;whiteSpace=wrap;html=1;fillColor=#60a917;fontColor=#ffffff;strokeColor=#2D7600;" vertex="1" parent="1">
          <mxGeometry x="-209" y="330" width="120" height="60" as="geometry" />
        </mxCell>
        <mxCell id="pIe9qyHZKkRfnRFprfgE-25" style="edgeStyle=orthogonalEdgeStyle;rounded=0;orthogonalLoop=1;jettySize=auto;html=1;exitX=1;exitY=0;exitDx=0;exitDy=0;entryX=0.5;entryY=1;entryDx=0;entryDy=0;" edge="1" parent="1" source="pIe9qyHZKkRfnRFprfgE-2" target="pIe9qyHZKkRfnRFprfgE-10">
          <mxGeometry relative="1" as="geometry" />
        </mxCell>
        <mxCell id="pIe9qyHZKkRfnRFprfgE-26" style="edgeStyle=orthogonalEdgeStyle;rounded=0;orthogonalLoop=1;jettySize=auto;html=1;exitX=0;exitY=0;exitDx=0;exitDy=0;entryX=0.5;entryY=1;entryDx=0;entryDy=0;" edge="1" parent="1" source="pIe9qyHZKkRfnRFprfgE-2" target="pIe9qyHZKkRfnRFprfgE-9">
          <mxGeometry relative="1" as="geometry" />
        </mxCell>
        <mxCell id="pIe9qyHZKkRfnRFprfgE-27" style="edgeStyle=orthogonalEdgeStyle;rounded=0;orthogonalLoop=1;jettySize=auto;html=1;exitX=0;exitY=1;exitDx=0;exitDy=0;entryX=1;entryY=1;entryDx=0;entryDy=0;" edge="1" parent="1" source="pIe9qyHZKkRfnRFprfgE-2" target="pIe9qyHZKkRfnRFprfgE-8">
          <mxGeometry relative="1" as="geometry" />
        </mxCell>
        <mxCell id="pIe9qyHZKkRfnRFprfgE-2" value="&lt;font&gt;Nombre completo&lt;/font&gt;" style="ellipse;whiteSpace=wrap;html=1;fillColor=#ffe6cc;strokeColor=#d79b00;fontColor=#000000;" vertex="1" parent="1">
          <mxGeometry x="-320" y="260" width="100" height="60" as="geometry" />
        </mxCell>
        <mxCell id="pIe9qyHZKkRfnRFprfgE-3" value="&lt;font color=&quot;#ffffff&quot;&gt;&lt;u&gt;Folio&lt;/u&gt;&lt;/font&gt;" style="ellipse;whiteSpace=wrap;html=1;fillColor=#76608a;fontColor=#ffffff;strokeColor=#432D57;" vertex="1" parent="1">
          <mxGeometry x="-350" y="350" width="100" height="60" as="geometry" />
        </mxCell>
        <mxCell id="pIe9qyHZKkRfnRFprfgE-30" style="edgeStyle=orthogonalEdgeStyle;rounded=0;orthogonalLoop=1;jettySize=auto;html=1;exitX=1;exitY=0.5;exitDx=0;exitDy=0;entryX=0;entryY=0.5;entryDx=0;entryDy=0;" edge="1" parent="1" source="pIe9qyHZKkRfnRFprfgE-4" target="pIe9qyHZKkRfnRFprfgE-28">
          <mxGeometry relative="1" as="geometry" />
        </mxCell>
        <mxCell id="pIe9qyHZKkRfnRFprfgE-91" style="edgeStyle=orthogonalEdgeStyle;rounded=0;orthogonalLoop=1;jettySize=auto;html=1;exitX=0.5;exitY=0;exitDx=0;exitDy=0;entryX=0.5;entryY=1;entryDx=0;entryDy=0;" edge="1" parent="1" source="pIe9qyHZKkRfnRFprfgE-4" target="pIe9qyHZKkRfnRFprfgE-74">
          <mxGeometry relative="1" as="geometry" />
        </mxCell>
        <mxCell id="pIe9qyHZKkRfnRFprfgE-4" value="Cursa" style="rhombus;whiteSpace=wrap;html=1;rounded=1;fillColor=#1ba1e2;fontColor=#ffffff;strokeColor=#006EAF;" vertex="1" parent="1">
          <mxGeometry x="3" y="340" width="120" height="50" as="geometry" />
        </mxCell>
        <mxCell id="pIe9qyHZKkRfnRFprfgE-5" value="&lt;font style=&quot;font-size: 21px;&quot;&gt;&amp;lt;N:M&amp;gt;&lt;/font&gt;" style="edgeLabel;html=1;align=center;verticalAlign=middle;resizable=0;points=[];rounded=1;labelBackgroundColor=#1BA1E2;fontColor=#FFFFFF;" vertex="1" connectable="0" parent="1">
          <mxGeometry x="72" y="384" as="geometry">
            <mxPoint x="-9" y="2" as="offset" />
          </mxGeometry>
        </mxCell>
        <mxCell id="pIe9qyHZKkRfnRFprfgE-6" value="&lt;font style=&quot;font-size: 21px;&quot;&gt;(5:30)&lt;/font&gt;" style="edgeLabel;html=1;align=center;verticalAlign=middle;resizable=0;points=[];rounded=1;" vertex="1" connectable="0" parent="1">
          <mxGeometry x="-38" y="363" as="geometry" />
        </mxCell>
        <mxCell id="pIe9qyHZKkRfnRFprfgE-7" value="&lt;font style=&quot;font-size: 21px;&quot;&gt;&amp;lt;0:N&amp;gt;&lt;/font&gt;" style="edgeLabel;html=1;align=center;verticalAlign=middle;resizable=0;points=[];rounded=1;" vertex="1" connectable="0" parent="1">
          <mxGeometry x="161" y="362" as="geometry">
            <mxPoint x="-9" y="2" as="offset" />
          </mxGeometry>
        </mxCell>
        <mxCell id="pIe9qyHZKkRfnRFprfgE-8" value="&lt;font color=&quot;#ffffff&quot;&gt;Nombre&lt;/font&gt;" style="ellipse;whiteSpace=wrap;html=1;fillColor=#fa6800;fontColor=#000000;strokeColor=#C73500;" vertex="1" parent="1">
          <mxGeometry x="-440" y="270" width="100" height="60" as="geometry" />
        </mxCell>
        <mxCell id="pIe9qyHZKkRfnRFprfgE-9" value="&lt;font color=&quot;#ffffff&quot;&gt;Apelldo Pat.&lt;/font&gt;" style="ellipse;whiteSpace=wrap;html=1;fillColor=#fa6800;fontColor=#000000;strokeColor=#C73500;" vertex="1" parent="1">
          <mxGeometry x="-390" y="200" width="100" height="60" as="geometry" />
        </mxCell>
        <mxCell id="pIe9qyHZKkRfnRFprfgE-10" value="&lt;font color=&quot;#ffffff&quot;&gt;Apellido Mat.&lt;/font&gt;" style="ellipse;whiteSpace=wrap;html=1;fillColor=#fa6800;fontColor=#000000;strokeColor=#C73500;" vertex="1" parent="1">
          <mxGeometry x="-280" y="187" width="100" height="60" as="geometry" />
        </mxCell>
        <mxCell id="pIe9qyHZKkRfnRFprfgE-11" value="&lt;font color=&quot;#ffffff&quot;&gt;Domicilio&lt;/font&gt;" style="ellipse;whiteSpace=wrap;html=1;fillColor=#fa6800;fontColor=#000000;strokeColor=#C73500;" vertex="1" parent="1">
          <mxGeometry x="-320" y="420" width="100" height="60" as="geometry" />
        </mxCell>
        <mxCell id="pIe9qyHZKkRfnRFprfgE-12" value="&lt;font color=&quot;#ffffff&quot;&gt;Teléfono&lt;/font&gt;" style="ellipse;whiteSpace=wrap;html=1;fillColor=#fa6800;fontColor=#000000;strokeColor=#C73500;" vertex="1" parent="1">
          <mxGeometry x="-199" y="250" width="100" height="60" as="geometry" />
        </mxCell>
        <mxCell id="pIe9qyHZKkRfnRFprfgE-13" value="&lt;font color=&quot;#ffffff&quot;&gt;Fecha de nacimiento&lt;/font&gt;" style="ellipse;whiteSpace=wrap;html=1;fillColor=#fa6800;fontColor=#000000;strokeColor=#C73500;" vertex="1" parent="1">
          <mxGeometry x="-209" y="430" width="100" height="60" as="geometry" />
        </mxCell>
        <mxCell id="pIe9qyHZKkRfnRFprfgE-65" style="edgeStyle=orthogonalEdgeStyle;rounded=0;orthogonalLoop=1;jettySize=auto;html=1;exitX=1;exitY=0.5;exitDx=0;exitDy=0;entryX=1;entryY=0.5;entryDx=0;entryDy=0;" edge="1" parent="1" source="pIe9qyHZKkRfnRFprfgE-28" target="pIe9qyHZKkRfnRFprfgE-63">
          <mxGeometry relative="1" as="geometry" />
        </mxCell>
        <mxCell id="pIe9qyHZKkRfnRFprfgE-28" value="Taller" style="rounded=1;whiteSpace=wrap;html=1;fillColor=#60a917;fontColor=#ffffff;strokeColor=#2D7600;" vertex="1" parent="1">
          <mxGeometry x="220" y="275" width="120" height="60" as="geometry" />
        </mxCell>
        <mxCell id="pIe9qyHZKkRfnRFprfgE-38" style="edgeStyle=orthogonalEdgeStyle;rounded=0;orthogonalLoop=1;jettySize=auto;html=1;exitX=0;exitY=0.75;exitDx=0;exitDy=0;entryX=0.97;entryY=0.713;entryDx=0;entryDy=0;entryPerimeter=0;" edge="1" parent="1" source="pIe9qyHZKkRfnRFprfgE-31" target="pIe9qyHZKkRfnRFprfgE-33">
          <mxGeometry relative="1" as="geometry" />
        </mxCell>
        <mxCell id="pIe9qyHZKkRfnRFprfgE-39" style="edgeStyle=orthogonalEdgeStyle;rounded=0;orthogonalLoop=1;jettySize=auto;html=1;exitX=0.5;exitY=0;exitDx=0;exitDy=0;entryX=0.5;entryY=1;entryDx=0;entryDy=0;" edge="1" parent="1" source="pIe9qyHZKkRfnRFprfgE-31" target="pIe9qyHZKkRfnRFprfgE-37">
          <mxGeometry relative="1" as="geometry" />
        </mxCell>
        <mxCell id="pIe9qyHZKkRfnRFprfgE-40" style="edgeStyle=orthogonalEdgeStyle;rounded=0;orthogonalLoop=1;jettySize=auto;html=1;exitX=0;exitY=0.25;exitDx=0;exitDy=0;entryX=0.702;entryY=0.933;entryDx=0;entryDy=0;entryPerimeter=0;" edge="1" parent="1" source="pIe9qyHZKkRfnRFprfgE-31" target="pIe9qyHZKkRfnRFprfgE-32">
          <mxGeometry relative="1" as="geometry" />
        </mxCell>
        <mxCell id="pIe9qyHZKkRfnRFprfgE-46" style="edgeStyle=orthogonalEdgeStyle;rounded=0;orthogonalLoop=1;jettySize=auto;html=1;exitX=0.25;exitY=1;exitDx=0;exitDy=0;entryX=0;entryY=0.5;entryDx=0;entryDy=0;" edge="1" parent="1" source="pIe9qyHZKkRfnRFprfgE-31" target="pIe9qyHZKkRfnRFprfgE-44">
          <mxGeometry relative="1" as="geometry" />
        </mxCell>
        <mxCell id="pIe9qyHZKkRfnRFprfgE-31" value="Profesor" style="rounded=1;whiteSpace=wrap;html=1;fillColor=#60a917;fontColor=#ffffff;strokeColor=#2D7600;" vertex="1" parent="1">
          <mxGeometry x="-69" y="83" width="120" height="60" as="geometry" />
        </mxCell>
        <mxCell id="pIe9qyHZKkRfnRFprfgE-41" style="edgeStyle=orthogonalEdgeStyle;rounded=0;orthogonalLoop=1;jettySize=auto;html=1;exitX=1;exitY=0;exitDx=0;exitDy=0;entryX=0.5;entryY=1;entryDx=0;entryDy=0;" edge="1" parent="1" source="pIe9qyHZKkRfnRFprfgE-32" target="pIe9qyHZKkRfnRFprfgE-36">
          <mxGeometry relative="1" as="geometry" />
        </mxCell>
        <mxCell id="pIe9qyHZKkRfnRFprfgE-42" style="edgeStyle=orthogonalEdgeStyle;rounded=0;orthogonalLoop=1;jettySize=auto;html=1;exitX=0;exitY=0;exitDx=0;exitDy=0;entryX=0.5;entryY=1;entryDx=0;entryDy=0;" edge="1" parent="1" source="pIe9qyHZKkRfnRFprfgE-32" target="pIe9qyHZKkRfnRFprfgE-35">
          <mxGeometry relative="1" as="geometry" />
        </mxCell>
        <mxCell id="pIe9qyHZKkRfnRFprfgE-43" style="edgeStyle=orthogonalEdgeStyle;rounded=0;orthogonalLoop=1;jettySize=auto;html=1;exitX=0;exitY=1;exitDx=0;exitDy=0;entryX=1;entryY=1;entryDx=0;entryDy=0;" edge="1" parent="1" source="pIe9qyHZKkRfnRFprfgE-32" target="pIe9qyHZKkRfnRFprfgE-34">
          <mxGeometry relative="1" as="geometry" />
        </mxCell>
        <mxCell id="pIe9qyHZKkRfnRFprfgE-32" value="&lt;font&gt;Nombre completo&lt;/font&gt;" style="ellipse;whiteSpace=wrap;html=1;fillColor=#ffe6cc;strokeColor=#d79b00;fontColor=#000000;" vertex="1" parent="1">
          <mxGeometry x="-180" y="13" width="100" height="60" as="geometry" />
        </mxCell>
        <mxCell id="pIe9qyHZKkRfnRFprfgE-33" value="&lt;font color=&quot;#ffffff&quot;&gt;&lt;u&gt;Cedula&lt;/u&gt;&lt;/font&gt;" style="ellipse;whiteSpace=wrap;html=1;fillColor=#76608a;fontColor=#ffffff;strokeColor=#432D57;" vertex="1" parent="1">
          <mxGeometry x="-210" y="103" width="100" height="60" as="geometry" />
        </mxCell>
        <mxCell id="pIe9qyHZKkRfnRFprfgE-34" value="&lt;font color=&quot;#ffffff&quot;&gt;Nombre&lt;/font&gt;" style="ellipse;whiteSpace=wrap;html=1;fillColor=#fa6800;fontColor=#000000;strokeColor=#C73500;" vertex="1" parent="1">
          <mxGeometry x="-300" y="23" width="100" height="60" as="geometry" />
        </mxCell>
        <mxCell id="pIe9qyHZKkRfnRFprfgE-35" value="&lt;font color=&quot;#ffffff&quot;&gt;Apelldo Pat.&lt;/font&gt;" style="ellipse;whiteSpace=wrap;html=1;fillColor=#fa6800;fontColor=#000000;strokeColor=#C73500;" vertex="1" parent="1">
          <mxGeometry x="-250" y="-47" width="100" height="60" as="geometry" />
        </mxCell>
        <mxCell id="pIe9qyHZKkRfnRFprfgE-36" value="&lt;font color=&quot;#ffffff&quot;&gt;Apellido Mat.&lt;/font&gt;" style="ellipse;whiteSpace=wrap;html=1;fillColor=#fa6800;fontColor=#000000;strokeColor=#C73500;" vertex="1" parent="1">
          <mxGeometry x="-140" y="-60" width="100" height="60" as="geometry" />
        </mxCell>
        <mxCell id="pIe9qyHZKkRfnRFprfgE-37" value="&lt;font color=&quot;#ffffff&quot;&gt;Teléfono&lt;/font&gt;" style="ellipse;whiteSpace=wrap;html=1;fillColor=#fa6800;fontColor=#000000;strokeColor=#C73500;" vertex="1" parent="1">
          <mxGeometry x="-59" y="3" width="100" height="60" as="geometry" />
        </mxCell>
        <mxCell id="pIe9qyHZKkRfnRFprfgE-47" style="edgeStyle=orthogonalEdgeStyle;rounded=0;orthogonalLoop=1;jettySize=auto;html=1;exitX=1;exitY=0.5;exitDx=0;exitDy=0;entryX=0.5;entryY=0;entryDx=0;entryDy=0;" edge="1" parent="1" source="pIe9qyHZKkRfnRFprfgE-44" target="pIe9qyHZKkRfnRFprfgE-28">
          <mxGeometry relative="1" as="geometry" />
        </mxCell>
        <mxCell id="pIe9qyHZKkRfnRFprfgE-44" value="Imparte" style="rhombus;whiteSpace=wrap;html=1;rounded=1;fillColor=#1ba1e2;fontColor=#ffffff;strokeColor=#006EAF;" vertex="1" parent="1">
          <mxGeometry x="41" y="197" width="120" height="50" as="geometry" />
        </mxCell>
        <mxCell id="pIe9qyHZKkRfnRFprfgE-45" value="&lt;font style=&quot;font-size: 21px;&quot;&gt;&amp;lt;1:N&amp;gt;&lt;/font&gt;" style="edgeLabel;html=1;align=center;verticalAlign=middle;resizable=0;points=[];rounded=1;labelBackgroundColor=#1BA1E2;fontColor=#FFFFFF;" vertex="1" connectable="0" parent="1">
          <mxGeometry x="110" y="241" as="geometry">
            <mxPoint x="-9" y="2" as="offset" />
          </mxGeometry>
        </mxCell>
        <mxCell id="pIe9qyHZKkRfnRFprfgE-48" value="&lt;font style=&quot;font-size: 21px;&quot;&gt;(1:1)&lt;/font&gt;" style="edgeLabel;html=1;align=center;verticalAlign=middle;resizable=0;points=[];rounded=1;" vertex="1" connectable="0" parent="1">
          <mxGeometry x="-3" y="222" as="geometry" />
        </mxCell>
        <mxCell id="pIe9qyHZKkRfnRFprfgE-49" value="&lt;font style=&quot;font-size: 21px;&quot;&gt;&amp;lt;1:N&amp;gt;&lt;/font&gt;" style="edgeLabel;html=1;align=center;verticalAlign=middle;resizable=0;points=[];rounded=1;" vertex="1" connectable="0" parent="1">
          <mxGeometry x="220" y="219" as="geometry">
            <mxPoint x="-9" y="2" as="offset" />
          </mxGeometry>
        </mxCell>
        <mxCell id="pIe9qyHZKkRfnRFprfgE-53" style="edgeStyle=orthogonalEdgeStyle;rounded=0;orthogonalLoop=1;jettySize=auto;html=1;exitX=0.75;exitY=0;exitDx=0;exitDy=0;entryX=0;entryY=1;entryDx=0;entryDy=0;" edge="1" parent="1" source="pIe9qyHZKkRfnRFprfgE-50" target="pIe9qyHZKkRfnRFprfgE-51">
          <mxGeometry relative="1" as="geometry" />
        </mxCell>
        <mxCell id="pIe9qyHZKkRfnRFprfgE-54" style="edgeStyle=orthogonalEdgeStyle;rounded=0;orthogonalLoop=1;jettySize=auto;html=1;exitX=0.5;exitY=1;exitDx=0;exitDy=0;entryX=0.5;entryY=0;entryDx=0;entryDy=0;" edge="1" parent="1" source="pIe9qyHZKkRfnRFprfgE-50" target="pIe9qyHZKkRfnRFprfgE-52">
          <mxGeometry relative="1" as="geometry" />
        </mxCell>
        <mxCell id="pIe9qyHZKkRfnRFprfgE-50" value="Historial académico" style="rounded=1;whiteSpace=wrap;html=1;fillColor=#60a917;fontColor=#ffffff;strokeColor=#2D7600;" vertex="1" parent="1">
          <mxGeometry x="190" y="431" width="120" height="60" as="geometry" />
        </mxCell>
        <mxCell id="pIe9qyHZKkRfnRFprfgE-51" value="&lt;font color=&quot;#ffffff&quot;&gt;&lt;u&gt;Código&lt;/u&gt;&lt;/font&gt;" style="ellipse;whiteSpace=wrap;html=1;fillColor=#76608a;fontColor=#ffffff;strokeColor=#432D57;" vertex="1" parent="1">
          <mxGeometry x="304" y="350" width="100" height="60" as="geometry" />
        </mxCell>
        <mxCell id="pIe9qyHZKkRfnRFprfgE-52" value="&lt;font color=&quot;#ffffff&quot;&gt;Fecha de emisión&lt;/font&gt;" style="ellipse;whiteSpace=wrap;html=1;fillColor=#fa6800;fontColor=#000000;strokeColor=#C73500;" vertex="1" parent="1">
          <mxGeometry x="204" y="526" width="100" height="60" as="geometry" />
        </mxCell>
        <mxCell id="pIe9qyHZKkRfnRFprfgE-57" style="edgeStyle=orthogonalEdgeStyle;rounded=0;orthogonalLoop=1;jettySize=auto;html=1;exitX=1;exitY=0.5;exitDx=0;exitDy=0;" edge="1" parent="1" source="pIe9qyHZKkRfnRFprfgE-55" target="pIe9qyHZKkRfnRFprfgE-50">
          <mxGeometry relative="1" as="geometry" />
        </mxCell>
        <mxCell id="pIe9qyHZKkRfnRFprfgE-55" value="Tiene" style="rhombus;whiteSpace=wrap;html=1;rounded=1;fillColor=#1ba1e2;fontColor=#ffffff;strokeColor=#006EAF;" vertex="1" parent="1">
          <mxGeometry x="-10" y="435" width="120" height="50" as="geometry" />
        </mxCell>
        <mxCell id="pIe9qyHZKkRfnRFprfgE-56" value="&lt;font style=&quot;font-size: 21px;&quot;&gt;&amp;lt;1:1&amp;gt;&lt;/font&gt;" style="edgeLabel;html=1;align=center;verticalAlign=middle;resizable=0;points=[];rounded=1;labelBackgroundColor=#1BA1E2;fontColor=#FFFFFF;" vertex="1" connectable="0" parent="1">
          <mxGeometry x="59" y="479" as="geometry">
            <mxPoint x="-9" y="2" as="offset" />
          </mxGeometry>
        </mxCell>
        <mxCell id="pIe9qyHZKkRfnRFprfgE-60" value="&lt;font style=&quot;font-size: 21px;&quot;&gt;(1:1)&lt;/font&gt;" style="edgeLabel;html=1;align=center;verticalAlign=middle;resizable=0;points=[];rounded=1;" vertex="1" connectable="0" parent="1">
          <mxGeometry x="-56" y="458" as="geometry" />
        </mxCell>
        <mxCell id="pIe9qyHZKkRfnRFprfgE-61" value="&lt;font style=&quot;font-size: 21px;&quot;&gt;&amp;lt;0:1&amp;gt;&lt;/font&gt;" style="edgeLabel;html=1;align=center;verticalAlign=middle;resizable=0;points=[];rounded=1;" vertex="1" connectable="0" parent="1">
          <mxGeometry x="156" y="458" as="geometry">
            <mxPoint x="-9" y="2" as="offset" />
          </mxGeometry>
        </mxCell>
        <mxCell id="pIe9qyHZKkRfnRFprfgE-71" style="edgeStyle=orthogonalEdgeStyle;rounded=0;orthogonalLoop=1;jettySize=auto;html=1;exitX=0.25;exitY=0;exitDx=0;exitDy=0;entryX=0.5;entryY=1;entryDx=0;entryDy=0;" edge="1" parent="1" source="pIe9qyHZKkRfnRFprfgE-62" target="pIe9qyHZKkRfnRFprfgE-70">
          <mxGeometry relative="1" as="geometry" />
        </mxCell>
        <mxCell id="pIe9qyHZKkRfnRFprfgE-73" style="edgeStyle=orthogonalEdgeStyle;rounded=0;orthogonalLoop=1;jettySize=auto;html=1;exitX=0.75;exitY=0;exitDx=0;exitDy=0;" edge="1" parent="1" source="pIe9qyHZKkRfnRFprfgE-62" target="pIe9qyHZKkRfnRFprfgE-69">
          <mxGeometry relative="1" as="geometry" />
        </mxCell>
        <mxCell id="pIe9qyHZKkRfnRFprfgE-62" value="Sección" style="rounded=1;whiteSpace=wrap;html=1;fillColor=#60a917;fontColor=#ffffff;strokeColor=none;" vertex="1" parent="1">
          <mxGeometry x="87" y="50" width="116" height="60" as="geometry" />
        </mxCell>
        <mxCell id="pIe9qyHZKkRfnRFprfgE-66" style="edgeStyle=orthogonalEdgeStyle;rounded=0;orthogonalLoop=1;jettySize=auto;html=1;exitX=0;exitY=0.5;exitDx=0;exitDy=0;" edge="1" parent="1" source="pIe9qyHZKkRfnRFprfgE-63" target="pIe9qyHZKkRfnRFprfgE-62">
          <mxGeometry relative="1" as="geometry" />
        </mxCell>
        <mxCell id="pIe9qyHZKkRfnRFprfgE-63" value="Constituído por" style="rhombus;whiteSpace=wrap;html=1;rounded=1;fillColor=#1ba1e2;fontColor=#ffffff;strokeColor=#006EAF;" vertex="1" parent="1">
          <mxGeometry x="304" y="50" width="120" height="50" as="geometry" />
        </mxCell>
        <mxCell id="pIe9qyHZKkRfnRFprfgE-64" value="&lt;font style=&quot;font-size: 21px;&quot;&gt;&amp;lt;N:1&amp;gt;&lt;/font&gt;" style="edgeLabel;html=1;align=center;verticalAlign=middle;resizable=0;points=[];rounded=1;labelBackgroundColor=#1BA1E2;fontColor=#FFFFFF;" vertex="1" connectable="0" parent="1">
          <mxGeometry x="373" y="94" as="geometry">
            <mxPoint x="-9" y="2" as="offset" />
          </mxGeometry>
        </mxCell>
        <mxCell id="pIe9qyHZKkRfnRFprfgE-67" value="&lt;font style=&quot;font-size: 21px;&quot;&gt;(1:1)&lt;/font&gt;" style="edgeLabel;html=1;align=center;verticalAlign=middle;resizable=0;points=[];rounded=1;" vertex="1" connectable="0" parent="1">
          <mxGeometry x="390" y="303" as="geometry" />
        </mxCell>
        <mxCell id="pIe9qyHZKkRfnRFprfgE-68" value="&lt;font style=&quot;font-size: 21px;&quot;&gt;&amp;lt;1:N&amp;gt;&lt;/font&gt;" style="edgeLabel;html=1;align=center;verticalAlign=middle;resizable=0;points=[];rounded=1;" vertex="1" connectable="0" parent="1">
          <mxGeometry x="270" y="73" as="geometry">
            <mxPoint x="-9" y="2" as="offset" />
          </mxGeometry>
        </mxCell>
        <mxCell id="pIe9qyHZKkRfnRFprfgE-69" value="&lt;font color=&quot;#ffffff&quot;&gt;&lt;u&gt;Identificador&lt;/u&gt;&lt;/font&gt;" style="ellipse;whiteSpace=wrap;html=1;fillColor=#76608a;fontColor=#ffffff;strokeColor=#432D57;" vertex="1" parent="1">
          <mxGeometry x="180" y="-64" width="100" height="60" as="geometry" />
        </mxCell>
        <mxCell id="pIe9qyHZKkRfnRFprfgE-70" value="&lt;font color=&quot;#ffffff&quot;&gt;Nombre de sección&lt;/font&gt;" style="ellipse;whiteSpace=wrap;html=1;fillColor=#fa6800;fontColor=#000000;strokeColor=#C73500;" vertex="1" parent="1">
          <mxGeometry x="36" y="-64" width="100" height="60" as="geometry" />
        </mxCell>
        <mxCell id="pIe9qyHZKkRfnRFprfgE-74" value="Calificación" style="shape=process;whiteSpace=wrap;html=1;backgroundOutline=1;fillColor=#d5e8d4;strokeColor=#82b366;" vertex="1" parent="1">
          <mxGeometry x="3" y="265" width="120" height="60" as="geometry" />
        </mxCell>
      </root>
    </mxGraphModel>
  </diagram>
</mxfile>
